<svg id="Capa_1" enable-background="new 0 0 512 512" height="512" viewBox="0 0 512 512" width="512" xmlns="http://www.w3.org/2000/svg"><g><path d="m449.896 375.239v-84.811c0-5.359-2.859-10.311-7.5-12.99l-73.439-42.4c1.089-4.312 1.674-8.822 1.674-13.468 0-25.127-16.943-46.356-40-52.904v-84.809c0-5.359-2.859-10.311-7.5-12.99l-119.263-68.857c-4.641-2.68-10.359-2.68-15 0l-73.474 42.42c-9.91-9.627-23.416-15.573-38.291-15.573-30.327 0-55 24.673-55 55 0 25.127 16.943 46.356 40 52.904v84.811c0 5.359 2.859 10.311 7.5 12.99l111.765 64.527v76.151c-23.057 6.547-40 27.777-40 52.904 0 30.327 24.673 55 55 55 14.875 0 28.381-5.945 38.291-15.573l73.473 42.42c4.641 2.68 10.359 2.68 15 0l73.474-42.42c9.91 9.627 23.416 15.573 38.291 15.573 30.327 0 55-24.673 55-55-.001-25.128-16.944-46.357-40.001-52.905zm-357.792-162.328v-76.15c23.057-6.547 40-27.777 40-52.904 0-4.645-.585-9.156-1.674-13.467l65.939-38.069 104.264 60.197v76.15c-23.057 6.547-40 27.777-40 52.904 0 4.645.585 9.156 1.674 13.468l-65.938 38.069zm223.528 266.769-65.938-38.07c1.089-4.312 1.674-8.822 1.674-13.467 0-25.127-16.943-46.356-40-52.904v-76.151l65.973-38.09c9.91 9.627 23.416 15.573 38.291 15.573s28.38-5.945 38.291-15.573l65.974 38.09v76.15c-23.057 6.547-40 27.777-40 52.904 0 4.645.584 9.156 1.674 13.467z"/></g></svg>